<svg width="141" height="141" viewBox="0 0 141 141" fill="none" xmlns="http://www.w3.org/2000/svg">
<path d="M131.747 53.5359C131.747 53.5359 134.17 39.8765 124.036 46.0453C124.036 46.0453 123.155 32.1656 114.563 41.8593C114.563 41.8593 109.936 33.2672 104.869 41.1984C98.0391 51.7734 93.4125 68.5172 97.8188 96.2765L106.191 90.7687C112.139 73.364 133.509 71.3812 136.373 61.9078C138.356 55.2984 131.747 53.5359 131.747 53.5359" fill="#42ADE2"/>
<path d="M48.6891 38.775L26.8781 46.7062C31.725 20.2687 63.45 22.0312 63.45 22.0312C63.45 22.0312 48.4688 29.0812 48.6891 38.775Z" fill="#42ADE2"/>
<path d="M52.2141 43.6219L29.0812 46.7063C39.6562 22.0313 70.2797 30.6234 70.2797 30.6234C70.2797 30.6234 54.1969 34.1484 52.2141 43.6219Z" fill="#42ADE2"/>
<path d="M4.40625 63.8906L16.3031 60.8062V68.7375C16.3031 68.5172 9.03281 67.4156 4.40625 63.8906" fill="#FFD93B"/>
<path d="M16.3031 60.586L4.40625 54.6375C12.3375 48.4688 21.3703 50.4516 21.3703 50.4516L16.3031 60.586V60.586Z" fill="#FFD93B"/>
<path d="M74.4656 116.766H69.8391V134.17C69.1781 134.391 65.2125 133.95 63.45 133.95C59.4844 133.95 56.1797 136.814 56.1797 136.814H74.4656V116.766Z" fill="#E08828"/>
<path d="M55.0781 116.766H50.4516V134.17C49.7906 134.391 45.825 133.95 44.0625 133.95C40.0969 133.95 36.7922 136.814 36.7922 136.814H55.0781V116.766Z" fill="#E08828"/>
<path d="M118.969 79.7532C127.561 79.7532 109.936 118.308 67.6359 118.308C38.9953 118.308 14.9813 106.852 14.9813 70.9407C14.9813 48.6891 29.0812 30.6235 57.9422 37.8938C87.2437 45.6047 72.2625 79.7532 118.969 79.7532Z" fill="#42ADE2"/>
<path d="M82.8375 113.902C48.4687 113.902 51.9937 87.4641 21.3703 89.2266C32.6062 124.036 82.8375 113.902 82.8375 113.902Z" fill="white"/>
<path d="M86.1422 64.3313C64.1109 42.7406 41.6391 77.9906 68.7375 92.0906C95.3953 105.75 113.681 81.5156 113.681 81.5156C113.681 81.5156 100.242 78.211 86.1422 64.3313Z" fill="#297B9D"/>
<path d="M33.2672 60.3656C36.3091 60.3656 38.775 57.8997 38.775 54.8578C38.775 51.8159 36.3091 49.35 33.2672 49.35C30.2253 49.35 27.7594 51.8159 27.7594 54.8578C27.7594 57.8997 30.2253 60.3656 33.2672 60.3656Z" fill="#3E4347"/>
</svg>
